<?xml version="1.0" encoding="UTF-8"?>
<svg version="1.1" xmlns="http://www.w3.org/2000/svg" width="256" height="256">
<path d="M0 0 C2.46612304 0.48949903 4.93793134 0.93455369 7.41308594 1.37597656 C17.72822584 3.26666409 27.48456043 5.8231391 37.32714844 9.46191406 C37.32714844 10.12191406 37.32714844 10.78191406 37.32714844 11.46191406 C38.19984375 11.7390625 39.07253906 12.01621094 39.97167969 12.30175781 C49.08590221 15.45300821 56.5210884 20.03247546 63.80371094 26.31347656 C65.95653264 28.1463743 68.12273074 29.74407113 70.45214844 31.33691406 C74.77308768 34.51797363 77.87747254 38.54569653 81.17089844 42.74707031 C82.99279008 45.0409375 84.87914434 47.14967678 86.88964844 49.27441406 C91.0087941 53.90603559 98.32714844 63.09694549 98.32714844 69.46191406 C98.98714844 69.46191406 99.64714844 69.46191406 100.32714844 69.46191406 C105.12689822 81.62307783 109.00714708 93.57997473 111.32714844 106.46191406 C111.52050781 107.52152344 111.71386719 108.58113281 111.91308594 109.67285156 C113.64151449 125.48960345 113.23915169 142.00854705 109.32714844 157.46191406 C109.06973877 158.51596436 109.06973877 158.51596436 108.80712891 159.59130859 C106.23709098 169.87835049 102.61507724 179.22672831 97.32714844 188.46191406 C96.95428711 189.11579102 96.58142578 189.76966797 96.19726562 190.44335938 C91.37252511 198.78275909 86.26847295 206.18546281 79.55371094 213.12988281 C77.27634384 215.43840972 77.27634384 215.43840972 75.28417969 218.07519531 C73.44045415 220.32373085 71.75997422 221.80972658 69.38964844 223.46191406 C66.95695538 225.20846292 65.06386806 226.7465415 63.01464844 228.96191406 C57.4612747 234.12784312 50.50034411 237.19669438 43.32714844 239.46191406 C42.99714844 240.12191406 42.66714844 240.78191406 42.32714844 241.46191406 C36.60124816 244.66168187 30.8561539 246.74986757 24.57714844 248.58691406 C23.35125 248.96396484 23.35125 248.96396484 22.10058594 249.34863281 C10.07231035 252.92713848 -1.69459531 253.87263377 -14.17285156 253.83691406 C-15.29652634 253.83559982 -15.29652634 253.83559982 -16.44290161 253.83425903 C-36.16945115 253.75830986 -54.84358969 250.376545 -72.67285156 241.46191406 C-72.67285156 240.80191406 -72.67285156 240.14191406 -72.67285156 239.46191406 C-73.40503906 239.35621094 -74.13722656 239.25050781 -74.89160156 239.14160156 C-77.89077023 238.40865866 -79.66576673 237.36129452 -82.17285156 235.58691406 C-84.4758176 233.97321603 -86.74042276 232.4226383 -89.17285156 231.00878906 C-97.94559895 225.58065161 -105.06134619 217.23689879 -111.80566406 209.54785156 C-113.56008113 207.52396974 -113.56008113 207.52396974 -115.18066406 206.05957031 C-118.66919856 202.32446401 -121.01511696 197.55491214 -123.63085938 193.17871094 C-124.57326715 191.62599035 -125.55450977 190.09700387 -126.54003906 188.57128906 C-134.33507079 176.16852747 -138.17283964 161.7965148 -140.67285156 147.46191406 C-140.85589844 146.43710938 -141.03894531 145.41230469 -141.22753906 144.35644531 C-144.71170863 113.88524302 -138.70460089 84.48404972 -122.67285156 58.46191406 C-122.02703125 57.38425781 -121.38121094 56.30660156 -120.71582031 55.19628906 C-117.75155807 50.36563948 -114.8488537 46.33235507 -110.67285156 42.46191406 C-109.41669696 41.00887871 -108.16738471 39.54991555 -106.92285156 38.08691406 C-102.16679293 32.70856739 -96.81235522 28.6095294 -90.90332031 24.56738281 C-86.24815245 21.33869594 -82.47051579 18.52829577 -79.23535156 13.83691406 C-75.07623061 8.18477533 -70.13907453 5.92750118 -63.67285156 3.46191406 C-62.59390625 3.0493335 -62.59390625 3.0493335 -61.49316406 2.62841797 C-41.47385479 -4.74164751 -20.70800997 -4.14518315 0 0 Z " fill="#F8D0DA" transform="translate(142.6728515625,2.5380859375)"/>
<path d="M0 0 C1.05719238 -0.00241699 2.11438477 -0.00483398 3.20361328 -0.00732422 C12.7482801 0.19479814 22.61181131 1.29361501 30.3125 7.375 C31.20710937 8.07367188 32.10171875 8.77234375 33.0234375 9.4921875 C35.99767269 12.042907 38.70277371 14.75940555 41.4375 17.5625 C42.4275 17.8925 43.4175 18.2225 44.4375 18.5625 C44.4375 19.2225 44.4375 19.8825 44.4375 20.5625 C45.71625 20.81 46.995 21.0575 48.3125 21.3125 C63.54678908 24.78450077 77.76978108 33.34765796 89.4375 43.5625 C93.2436826 46.87784005 96.88217404 49.33545175 101.4375 51.5625 C104.10851134 53.47036524 104.42372848 54.50859434 105.2578125 57.7734375 C106.51050949 61.79700067 108.16519734 64.487723 110.5625 67.9375 C127.63951865 93.51307158 132.52048305 123.33885954 126.84545898 153.59423828 C121.52189584 178.77685215 107.55919842 200.65110543 88.4375 217.5625 C87.7775 217.5625 87.1175 217.5625 86.4375 217.5625 C84.95703125 215.5078125 84.95703125 215.5078125 83.25 212.6875 C79.83989711 207.16399301 76.20751556 201.84510539 72.4375 196.5625 C74.01762014 193.06366255 75.04623316 192.25813342 78.4375 190.5625 C79.10985853 189.23202782 79.77563378 187.89822277 80.4375 186.5625 C81.50196165 185.27581827 82.58732466 184.0062813 83.6875 182.75 C86.90125589 178.70255011 88.9227481 174.63850626 90.8125 169.875 C91.06290039 169.24553467 91.31330078 168.61606934 91.57128906 167.9675293 C94.04573026 161.43297404 94.61954581 155.08557098 95 148.1875 C95.06477539 147.08341797 95.06477539 147.08341797 95.13085938 145.95703125 C95.23593799 144.15901932 95.33712093 142.36078042 95.4375 140.5625 C96.2109375 140.25957031 96.984375 139.95664063 97.78125 139.64453125 C108.79389334 135.2149408 117.01300364 131.27370564 122.56640625 120.33984375 C125.41696621 111.25128711 124.70214901 100.31165915 120.4375 91.8125 C115.89388818 83.88866084 110.14606269 79.36036659 101.4375 76.5625 C98.46087633 76.07168527 95.51297317 75.95653588 92.5 75.875 C91.17524658 75.829198 91.17524658 75.829198 89.82373047 75.7824707 C86.69519584 75.68812311 83.56683876 75.62455615 80.4375 75.5625 C79.16277832 75.52995117 77.88805664 75.49740234 76.57470703 75.46386719 C73.09976279 75.37735741 69.62514889 75.31960545 66.14938354 75.27841187 C64.12290756 75.25082242 62.09669893 75.20539648 60.07055664 75.15942383 C50.46904634 75.10361854 42.52182175 76.65850635 33.4375 79.5625 C32.57833984 79.83441162 31.71917969 80.10632324 30.83398438 80.38647461 C28.6613433 81.10903377 26.51753438 81.88032648 24.375 82.6875 C23.59318359 82.98043945 22.81136719 83.27337891 22.00585938 83.57519531 C1.64751118 91.3639881 -17.36168946 101.30310315 -35.53125 113.3203125 C-37.5625 114.5625 -37.5625 114.5625 -40.5625 115.5625 C-34.44149291 139.10483497 -27.11955633 165.06401892 -10.5625 183.5625 C-9.87671875 184.38878906 -9.1909375 185.21507812 -8.484375 186.06640625 C0.11526487 196.15444533 10.53612177 203.33715544 23.4375 206.5625 C23.9325 209.0375 23.9325 209.0375 24.4375 211.5625 C26.7475 211.8925 29.0575 212.2225 31.4375 212.5625 C28.19371399 215.80628601 24.31492955 214.85870754 19.89453125 214.88476562 C18.62996094 214.88154297 17.36539063 214.87832031 16.0625 214.875 C14.83660156 214.89111328 13.61070313 214.90722656 12.34765625 214.92382812 C1.72759732 214.92945912 -7.98142541 213.50779462 -17.3125 208.25 C-18.38757813 207.64542969 -19.46265625 207.04085937 -20.5703125 206.41796875 C-23.91581168 204.34340986 -26.98750088 202.08957348 -29.9765625 199.53125 C-30.49992187 199.2115625 -31.02328125 198.891875 -31.5625 198.5625 C-35.88151734 200.00217245 -36.90046784 203.25080986 -38.9375 207.0625 C-39.53195923 208.14821289 -39.53195923 208.14821289 -40.13842773 209.25585938 C-40.92627656 210.69587105 -41.71045616 212.13789705 -42.49072266 213.58203125 C-43.84682909 216.08789353 -45.23418383 218.57576851 -46.625 221.0625 C-47.27130919 222.22890312 -47.91737576 223.39544108 -48.5625 224.5625 C-52.72991523 223.17088098 -55.35666663 221.23042321 -58.5625 218.25 C-59.87541016 217.03183594 -59.87541016 217.03183594 -61.21484375 215.7890625 C-63.71508228 213.41778802 -66.18699168 211.05982926 -68.5625 208.5625 C-69.21605469 207.8921875 -69.86960937 207.221875 -70.54296875 206.53125 C-90.89118174 184.95724105 -99.9881654 157.70717623 -99.8125 128.3125 C-99.82023437 127.0028125 -99.82796875 125.693125 -99.8359375 124.34375 C-99.82248639 117.69890242 -99.51539729 111.91297988 -97.5625 105.5625 C-97.10153308 103.41723087 -96.64304625 101.27142674 -96.1875 99.125 C-94.87704278 93.50416635 -93.18506524 88.68600426 -90.5625 83.5625 C-90.26069824 82.94858398 -89.95889648 82.33466797 -89.64794922 81.70214844 C-84.524872 71.30008485 -79.12667005 62.15705973 -70.875 53.8671875 C-66.80917361 49.65312786 -64.97980111 44.94213048 -62.95239258 39.54199219 C-57.97982239 26.5148525 -51.42896548 14.01981128 -38.31640625 8.05078125 C-25.65818018 2.90956222 -13.73029332 0.0295869 0 0 Z " fill="#D15D27" transform="translate(113.5625,-0.5625)"/>
<path d="M0 0 C8.44078948 0.15372299 16.21238471 1.31614637 24.375 3.375 C25.20612305 3.58406982 26.03724609 3.79313965 26.89355469 4.00854492 C32.07226229 5.36534147 37.01790166 7.04151996 42 9 C42 9.66 42 10.32 42 11 C42.87269531 11.27714844 43.74539062 11.55429688 44.64453125 11.83984375 C53.75875378 14.99109415 61.19393996 19.5705614 68.4765625 25.8515625 C70.6293842 27.68446023 72.79558231 29.28215707 75.125 30.875 C79.44593924 34.05605956 82.55032411 38.08378247 85.84375 42.28515625 C87.66564164 44.57902344 89.5519959 46.68776271 91.5625 48.8125 C95.68164566 53.44412153 103 62.63503143 103 69 C103.66 69 104.32 69 105 69 C109.79974978 81.16116377 113.67999865 93.11806067 116 106 C116.19335938 107.05960937 116.38671875 108.11921875 116.5859375 109.2109375 C118.31436606 125.02768939 117.91200326 141.54663299 114 157 C113.74259033 158.05405029 113.74259033 158.05405029 113.47998047 159.12939453 C110.90994254 169.41643643 107.28792881 178.76481425 102 188 C101.62713867 188.65387695 101.25427734 189.30775391 100.87011719 189.98144531 C96.04537668 198.32084503 90.94132451 205.72354875 84.2265625 212.66796875 C81.9491954 214.97649565 81.9491954 214.97649565 79.95703125 217.61328125 C78.11330571 219.86181679 76.43282579 221.34781252 74.0625 223 C71.62980695 224.74654886 69.73671962 226.28462743 67.6875 228.5 C62.13412626 233.66592906 55.17319567 236.73478032 48 239 C47.67 239.66 47.34 240.32 47 241 C41.27409972 244.1997678 35.52900546 246.28795351 29.25 248.125 C28.02410156 248.50205078 28.02410156 248.50205078 26.7734375 248.88671875 C14.74516191 252.46522442 2.97825625 253.41071971 -9.5 253.375 C-10.24911652 253.37412384 -10.99823303 253.37324768 -11.77005005 253.37234497 C-31.49659959 253.2963958 -50.17073813 249.91463094 -68 241 C-68 240.34 -68 239.68 -68 239 C-68.7321875 238.89429688 -69.464375 238.78859375 -70.21875 238.6796875 C-73.21791867 237.9467446 -74.99291517 236.89938046 -77.5 235.125 C-79.80296604 233.51130197 -82.0675712 231.96072424 -84.5 230.546875 C-93.27274739 225.11873755 -100.38849463 216.77498473 -107.1328125 209.0859375 C-108.88722957 207.06205568 -108.88722957 207.06205568 -110.5078125 205.59765625 C-113.996347 201.86254994 -116.3422654 197.09299807 -118.95800781 192.71679688 C-119.90041559 191.16407629 -120.88165821 189.6350898 -121.8671875 188.109375 C-129.66221923 175.70661341 -133.49998808 161.33460074 -136 147 C-136.18304688 145.97519531 -136.36609375 144.95039063 -136.5546875 143.89453125 C-140.03885707 113.42332896 -134.03174933 84.02213566 -118 58 C-117.35417969 56.92234375 -116.70835938 55.8446875 -116.04296875 54.734375 C-113.0787065 49.90372541 -110.17600214 45.87044101 -106 42 C-104.7438454 40.54696465 -103.49453315 39.08800149 -102.25 37.625 C-98.24830524 33.08924448 -93.86892615 29.55643301 -89 26 C-88.24847656 25.41734375 -87.49695313 24.8346875 -86.72265625 24.234375 C-81.25160631 20 -81.25160631 20 -79 20 C-80.55351045 24.09632107 -82.44690044 27.9783274 -84.4375 31.875 C-86.23595164 35.40975377 -87.94876674 38.869484 -89.3984375 42.5625 C-91.15351714 46.32950019 -93.41361701 49.09760034 -96.1875 52.125 C-109.30796998 67.04371802 -118.99465795 85.8800415 -121.640625 105.671875 C-122 108 -122 108 -123 110 C-123.27782532 114.70198302 -123.24526991 119.41557128 -123.25 124.125 C-123.25100708 124.80883759 -123.25201416 125.49267517 -123.25305176 126.19723511 C-123.24278856 136.45454565 -122.69897871 146.05267235 -120 156 C-119.75636719 157.04671875 -119.51273438 158.0934375 -119.26171875 159.171875 C-115.16345691 174.78800067 -106.28360384 188.75332643 -96 201 C-95.48050781 201.6703125 -94.96101563 202.340625 -94.42578125 203.03125 C-90.06552535 208.52842076 -84.50764255 212.7070339 -79 217 C-78.27039063 217.58265625 -77.54078125 218.1653125 -76.7890625 218.765625 C-75.08789678 220.18930031 -75.08789678 220.18930031 -73 220 C-72.72325439 219.46109131 -72.44650879 218.92218262 -72.16137695 218.36694336 C-70.88404778 215.88751585 -69.59834398 213.41252167 -68.3125 210.9375 C-67.65991211 209.66616211 -67.65991211 209.66616211 -66.99414062 208.36914062 C-64.33107527 203.26000042 -61.46672618 198.60356251 -58 194 C-54.4190671 195.6820847 -51.15252071 197.7600526 -47.8125 199.875 C-34.27780372 208.28590107 -22.63722299 210.31495213 -6.9375 210.125 C-5.48503222 210.11494832 -4.0325577 210.10582635 -2.58007812 210.09765625 C0.94675682 210.07582017 4.4733342 210.04141149 8 210 C8 209.34 8 208.68 8 208 C8.969375 207.8040625 9.93875 207.608125 10.9375 207.40625 C20.81408848 205.25786822 29.22937349 201.82166211 38.09765625 197.015625 C41.362842 195.27240468 44.68370961 193.64347135 48 192 C49.58454292 194.20747392 51.16766053 196.41594742 52.75 198.625 C53.1934375 199.24246094 53.636875 199.85992187 54.09375 200.49609375 C55.40328432 202.32559023 56.70449631 204.16054445 58 206 C58.40283203 206.57073242 58.80566406 207.14146484 59.22070312 207.72949219 C62 211.76118827 62 211.76118827 62 214 C84.8973948 194.51285549 100.47184319 168.45522236 103 138 C104.7061794 107.96582617 98.94715981 83.46362482 81.6875 58.625 C80 56 80 56 79 52.8125 C77.42896497 48.39396398 74.77718171 47.41848246 70.75 45.25 C67.97435785 43.70148385 65.76626286 41.97171696 63.4375 39.8125 C50.93784223 28.52640123 35.86106974 21.96980185 20 17 C20 16.34 20 15.68 20 15 C19.40574219 14.90074219 18.81148437 14.80148438 18.19921875 14.69921875 C15.57864847 13.86603566 14.63227642 12.84795362 12.8125 10.8125 C9.45891733 7.2766574 5.84504976 4.73797764 1.72265625 2.1640625 C0.86994141 1.58785156 0.86994141 1.58785156 0 1 C0 0.67 0 0.34 0 0 Z " fill="#F7A122" transform="translate(138,3)"/>
<path d="M0 0 C0.66 0 1.32 0 2 0 C1.855625 0.70640625 1.71125 1.4128125 1.5625 2.140625 C-1.22115146 17.5280317 -3.11721037 38.32418444 6 52 C5.88051071 54.96333449 5.11744402 55.88883162 2.953125 57.9375 C2.06109375 58.618125 1.1690625 59.29875 0.25 60 C-16.87744182 72.47881116 -16.87744182 72.47881116 -26.4140625 90.06640625 C-26.43466478 92.75500362 -26.31951146 95.33233286 -26 98 C-11.3303501 103.98863924 1.85581329 101.82691485 17 99 C17 96.03 17 93.06 17 90 C16.32453125 90.20496094 15.6490625 90.40992188 14.953125 90.62109375 C14.06109375 90.89050781 13.1690625 91.15992188 12.25 91.4375 C11.36828125 91.70433594 10.4865625 91.97117187 9.578125 92.24609375 C5.61845449 93.4039974 2.23465063 94.12728194 -1.9140625 94.1328125 C-2.83960937 94.13410156 -3.76515625 94.13539063 -4.71875 94.13671875 C-5.6778125 94.13285156 -6.636875 94.12898438 -7.625 94.125 C-9.07519531 94.13080078 -9.07519531 94.13080078 -10.5546875 94.13671875 C-11.47765625 94.13542969 -12.400625 94.13414062 -13.3515625 94.1328125 C-14.61734131 94.13112061 -14.61734131 94.13112061 -15.90869141 94.12939453 C-18 94 -18 94 -20 93 C-18.54902612 81.24500871 -4.75121614 71.89569513 4 65 C7.25123737 62.52967208 10.59668749 60.2548696 14 58 C15.29382945 57.11192974 16.58671456 56.22248286 17.87890625 55.33203125 C49.5917754 33.62848053 83.4128142 20.02022899 120.5 10.375 C121.62019531 10.0759375 122.74039063 9.776875 123.89453125 9.46875 C134.42007342 6.72506773 144.89657942 4.59538036 155.8125 4.875 C156.51697266 4.88402344 157.22144531 4.89304687 157.94726562 4.90234375 C159.63166907 4.9252608 161.31589019 4.96108604 163 5 C163.6875 7.25390625 163.6875 7.25390625 164 10 C162.8125 12.02734375 162.8125 12.02734375 161 13.9375 C160.4225 14.56527344 159.845 15.19304687 159.25 15.83984375 C158.13625 16.90912109 158.13625 16.90912109 157 18 C156.5875 18.51755859 156.175 19.03511719 155.75 19.56835938 C152.90786368 22.68804807 150.81277602 23.87893218 146.5859375 24.50854492 C142.38105785 24.67364036 138.20631337 24.69231597 134 24.625 C122.58238653 24.49557795 112.9229065 25.46445736 102 29 C101.1426123 29.27183105 100.28522461 29.54366211 99.40185547 29.82373047 C97.22699697 30.54553612 95.08177363 31.31717124 92.9375 32.125 C92.15568359 32.41793945 91.37386719 32.71087891 90.56835938 33.01269531 C70.21001118 40.8014881 51.20081054 50.74060315 33.03125 62.7578125 C31 64 31 64 28 65 C34.12100709 88.54233497 41.44294367 114.50151892 58 133 C58.68578125 133.82628906 59.3715625 134.65257812 60.078125 135.50390625 C68.67776487 145.59194533 79.09862177 152.77465544 92 156 C92.495 158.475 92.495 158.475 93 161 C95.31 161.33 97.62 161.66 100 162 C96.75621399 165.24378601 92.87742955 164.29620754 88.45703125 164.32226562 C87.19246094 164.31904297 85.92789063 164.31582031 84.625 164.3125 C83.39910156 164.32861328 82.17320313 164.34472656 80.91015625 164.36132812 C70.29009732 164.36695912 60.58107459 162.94529462 51.25 157.6875 C50.17492187 157.08292969 49.09984375 156.47835937 47.9921875 155.85546875 C44.64668832 153.78090986 41.57499912 151.52707348 38.5859375 148.96875 C38.06257813 148.6490625 37.53921875 148.329375 37 148 C32.68098266 149.43967245 31.66203216 152.68830986 29.625 156.5 C29.03054077 157.58571289 29.03054077 157.58571289 28.42407227 158.69335938 C27.63622344 160.13337105 26.85204384 161.57539705 26.07177734 163.01953125 C24.71567091 165.52539353 23.32831617 168.01326851 21.9375 170.5 C21.29119081 171.66640312 20.64512424 172.83294108 20 174 C15.83258477 172.60838098 13.20583337 170.66792321 10 167.6875 C8.68708984 166.46933594 8.68708984 166.46933594 7.34765625 165.2265625 C4.84741772 162.85528802 2.37550832 160.49732926 0 158 C-0.65355469 157.3296875 -1.30710937 156.659375 -1.98046875 155.96875 C-22.32868174 134.39474105 -31.4256654 107.14467623 -31.25 77.75 C-31.25773437 76.4403125 -31.26546875 75.130625 -31.2734375 73.78125 C-31.25998639 67.13640242 -30.95289729 61.35047988 -29 55 C-28.53903308 52.85473087 -28.08054625 50.70892674 -27.625 48.5625 C-26.31454278 42.94166635 -24.62256524 38.12350426 -22 33 C-21.69819824 32.38608398 -21.39639648 31.77216797 -21.08544922 31.13964844 C-16.293896 21.41072203 -11.23134821 13.13008173 -4 5 C-2.94232422 3.61554687 -2.94232422 3.61554687 -1.86328125 2.203125 C-1.24839844 1.47609375 -0.63351563 0.7490625 0 0 Z " fill="#E18D25" transform="translate(45,50)"/>
<path d="M0 0 C0.66 0 1.32 0 2 0 C1.855625 0.70640625 1.71125 1.4128125 1.5625 2.140625 C-1.22115146 17.5280317 -3.11721037 38.32418444 6 52 C5.88051071 54.96333449 5.11744402 55.88883162 2.953125 57.9375 C2.06109375 58.618125 1.1690625 59.29875 0.25 60 C-16.87744182 72.47881116 -16.87744182 72.47881116 -26.4140625 90.06640625 C-26.43466478 92.75500362 -26.31951146 95.33233286 -26 98 C-11.3303501 103.98863924 1.85581329 101.82691485 17 99 C17.01417969 99.7528125 17.02835938 100.505625 17.04296875 101.28125 C17.83134503 118.83860285 23.93330275 133.219297 36 146 C35.59910156 146.59683594 35.19820313 147.19367188 34.78515625 147.80859375 C29.26203198 156.23730721 24.62423191 165.05562399 20 174 C15.83258477 172.60838098 13.20583337 170.66792321 10 167.6875 C8.68708984 166.46933594 8.68708984 166.46933594 7.34765625 165.2265625 C4.84741772 162.85528802 2.37550832 160.49732926 0 158 C-0.65355469 157.3296875 -1.30710937 156.659375 -1.98046875 155.96875 C-22.32868174 134.39474105 -31.4256654 107.14467623 -31.25 77.75 C-31.25773437 76.4403125 -31.26546875 75.130625 -31.2734375 73.78125 C-31.25998639 67.13640242 -30.95289729 61.35047988 -29 55 C-28.53903308 52.85473087 -28.08054625 50.70892674 -27.625 48.5625 C-26.31454278 42.94166635 -24.62256524 38.12350426 -22 33 C-21.69819824 32.38608398 -21.39639648 31.77216797 -21.08544922 31.13964844 C-16.293896 21.41072203 -11.23134821 13.13008173 -4 5 C-2.94232422 3.61554687 -2.94232422 3.61554687 -1.86328125 2.203125 C-1.24839844 1.47609375 -0.63351563 0.7490625 0 0 Z " fill="#064467" transform="translate(45,50)"/>
<path d="M0 0 C1.41763727 0.01599885 2.83528077 0.03145515 4.25292969 0.04638672 C7.06003238 0.0799694 9.86658141 0.12550878 12.67333984 0.18066406 C16.08116687 0.24141879 19.48629038 0.26345729 22.89453125 0.2734375 C33.89102888 0.40974185 42.6667205 1.48915088 51.4375 8.81640625 C53.08945564 10.53031022 54.30774382 12.22822986 55.5625 14.25 C56.04589844 14.99507812 56.52929688 15.74015625 57.02734375 16.5078125 C61.97946385 25.47924337 62.37793531 36.57119671 59.7109375 46.3828125 C55.82273944 55.0320694 48.29912378 60.90439634 39.5625 64.25 C37.23502386 64.93683602 34.90239426 65.60673975 32.5625 66.25 C32.48902344 67.82587891 32.48902344 67.82587891 32.4140625 69.43359375 C31.44213916 88.48147453 27.02942641 103.84162918 12.5625 117.25 C12.07136719 117.75789063 11.58023438 118.26578125 11.07421875 118.7890625 C1.38524954 128.19874878 -15.13185437 136.97470401 -28.80078125 137.33984375 C-29.67089844 137.31019531 -30.54101562 137.28054687 -31.4375 137.25 C-31.7675 137.91 -32.0975 138.57 -32.4375 139.25 C-35.8125 139 -35.8125 139 -39.4375 138.25 C-40.875 136.1875 -40.875 136.1875 -41.4375 134.25 C-39.5349402 132.3474402 -36.11130221 132.71186804 -33.5625 132.4375 C-15.19470858 130.16946951 2.64535029 120.86134247 14.70703125 106.77734375 C21.61903861 97.36246214 24.74146119 87.34446176 25.1875 75.8125 C25.22617188 74.98556641 25.26484375 74.15863281 25.3046875 73.30664062 C25.39803092 71.28808927 25.48130961 69.26907669 25.5625 67.25 C22.5925 67.25 19.6225 67.25 16.5625 67.25 C16.2325 65.93 15.9025 64.61 15.5625 63.25 C16.5625 62.25 16.5625 62.25 18.41015625 62.15234375 C20.4609375 62.18489583 22.51171875 62.21744792 24.5625 62.25 C24.5625 61.59 24.5625 60.93 24.5625 60.25 C23.510625 60.1571875 23.510625 60.1571875 22.4375 60.0625 C15.27974877 58.03965726 11.72243024 52.14948762 8.04296875 46.08203125 C3.82229624 38.00818541 3.14461149 28.2816695 5.75 19.5625 C7.37831861 15.20480924 9.59519386 11.82598432 12.5625 8.25 C13.2225 8.25 13.8825 8.25 14.5625 8.25 C14.5625 7.59 14.5625 6.93 14.5625 6.25 C-7.49932001 6.61154458 -7.49932001 6.61154458 -29.5 8.125 C-30.56504761 8.22433838 -30.56504761 8.22433838 -31.65161133 8.32568359 C-35.24315775 8.73517315 -38.355367 9.536202 -41.68359375 10.8828125 C-45.38267497 12.23003251 -45.99080132 12.3930208 -49.4375 11.25 C-46.02470418 9.96860723 -42.60660591 8.70194914 -39.1875 7.4375 C-37.764375 6.90286133 -37.764375 6.90286133 -36.3125 6.35742188 C-23.97551732 1.81441136 -13.18475788 -0.22521644 0 0 Z " fill="#E98392" transform="translate(177.4375,73.75)"/>
<path d="M0 0 C2.84770817 1.6891117 4.34541098 4.03017846 6.26171875 6.70703125 C6.65351318 7.25029053 7.04530762 7.7935498 7.44897461 8.35327148 C8.58047803 9.92492108 9.70256667 11.50333589 10.82421875 13.08203125 C11.38367188 13.82324219 11.943125 14.56445312 12.51953125 15.328125 C15.82421875 19.71863839 15.82421875 19.71863839 15.82421875 23.08203125 C13.93380265 24.66885403 12.14877641 25.95955258 10.07421875 27.26953125 C9.45949707 27.66027832 8.84477539 28.05102539 8.21142578 28.45361328 C-3.4191128 35.53245078 -16.84113229 40.4582324 -30.17578125 43.08203125 C-31.2438501 43.32928955 -31.2438501 43.32928955 -32.33349609 43.58154297 C-56.62176474 48.96985667 -84.7659559 44.42098916 -106.17578125 31.70703125 C-107.51815699 30.84596786 -108.85569769 29.97689558 -110.17578125 29.08203125 C-109.60400762 24.11050803 -107.32796217 20.39166942 -104.86328125 16.14453125 C-104.47205078 15.45423828 -104.08082031 14.76394531 -103.67773438 14.05273438 C-101.33089033 9.94673029 -98.84535596 5.98559701 -96.17578125 2.08203125 C-92.25593519 2.65396608 -89.62269815 3.82378749 -86.30078125 5.95703125 C-74.11933723 13.47821825 -62.99135692 14.37494313 -49.11328125 14.20703125 C-47.66081347 14.19697957 -46.20833895 14.1878576 -44.75585938 14.1796875 C-41.22902443 14.15785142 -37.70244705 14.12344274 -34.17578125 14.08203125 C-34.17578125 13.42203125 -34.17578125 12.76203125 -34.17578125 12.08203125 C-33.20640625 11.88609375 -32.23703125 11.69015625 -31.23828125 11.48828125 C-22.59933607 9.60462599 -15.13736837 6.97332286 -7.40625 2.63671875 C-2.78872716 0.10514052 -2.78872716 0.10514052 0 0 Z " fill="#FEC11C" transform="translate(180.17578125,198.91796875)"/>
<path d="M0 0 C8.55297002 3.16005751 13.57387166 17.6802607 17.26489258 25.53466797 C28.33544976 50.15256612 28.254835 80.6839094 19.8125 106.125 C12.04831329 126.13626693 1.13426637 142.73071604 -15 157 C-15.66 157 -16.32 157 -17 157 C-18.48046875 154.9453125 -18.48046875 154.9453125 -20.1875 152.125 C-23.59760289 146.60149301 -27.22998444 141.28260539 -31 136 C-29.41987986 132.50116255 -28.39126684 131.69563342 -25 130 C-24.32764147 128.66952782 -23.66186622 127.33572277 -23 126 C-21.93553835 124.71331827 -20.85017534 123.4437813 -19.75 122.1875 C-16.53624411 118.14005011 -14.5147519 114.07600626 -12.625 109.3125 C-12.37459961 108.68303467 -12.12419922 108.05356934 -11.86621094 107.4050293 C-9.39176974 100.87047404 -8.81795419 94.52307098 -8.4375 87.625 C-8.39431641 86.88894531 -8.35113281 86.15289062 -8.30664062 85.39453125 C-8.20156201 83.59651932 -8.10037907 81.79828042 -8 80 C-6.83984375 79.54560547 -6.83984375 79.54560547 -5.65625 79.08203125 C5.35639334 74.6524408 13.57550364 70.71120564 19.12890625 59.77734375 C21.97946621 50.68878711 21.26464901 39.74915915 17 31.25 C12.3917907 23.21350596 6.75506082 18.97046706 -2 16 C-4.67691361 15.51843882 -7.28500301 15.23815763 -10 15 C-8.52501821 11.75355767 -6.66337381 9.15385708 -4.4375 6.375 C-1.9803419 3.33933997 -1.9803419 3.33933997 0 0 Z " fill="#336A8A" transform="translate(217,60)"/>
<path d="M0 0 C6.01933796 3.54078703 12.0611032 7.90792343 14.1875 14.875 C15.20703541 22.30991389 14.74274329 28.39040993 10.8671875 34.875 C6.56693574 39.99529976 1.69876118 42.89690035 -4.3125 45.5625 C-4.95058594 45.85705078 -5.58867187 46.15160156 -6.24609375 46.45507812 C-13.80936791 49.8964452 -20.46216107 52.19347457 -28.8125 50.875 C-35.6575613 47.85817967 -39.77367168 43.31860018 -42.87890625 36.55078125 C-44.81685627 30.99640567 -44.97711896 24.85073899 -42.8203125 19.33984375 C-38.50062716 12.22578569 -31.8485455 7.4755008 -24.1875 4.4375 C-23.011875 4.1590625 -23.011875 4.1590625 -21.8125 3.875 C-21.8125 3.215 -21.8125 2.555 -21.8125 1.875 C-15.19692368 -2.53538422 -7.44567729 -2.1970851 0 0 Z " fill="#232B31" transform="translate(136.8125,5.125)"/>
<path d="M0 0 C0.16702456 4.34263862 0.12999997 7.20960634 -2 11 C-3.19753906 11.02578125 -4.39507812 11.0515625 -5.62890625 11.078125 C-16.24094678 11.40481798 -25.87627583 12.58609847 -36 16 C-36.70527832 16.23460938 -37.41055664 16.46921875 -38.13720703 16.7109375 C-61.90893763 24.74703549 -84.06039134 35.92918288 -104.96875 49.7578125 C-107 51 -107 51 -110 52 C-103.87899291 75.54233497 -96.55705633 101.50151892 -80 120 C-79.31421875 120.82628906 -78.6284375 121.65257812 -77.921875 122.50390625 C-69.32223513 132.59194533 -58.90137823 139.77465544 -46 143 C-45.505 145.475 -45.505 145.475 -45 148 C-42.69 148.33 -40.38 148.66 -38 149 C-40 151 -40 151 -43.375 151.4375 C-57.71423537 151.02262158 -71.29851228 139.53898374 -81 130 C-81.67675781 129.33613281 -82.35351562 128.67226562 -83.05078125 127.98828125 C-97.44203159 112.84718621 -104.6502169 93.08943122 -111.625 73.8125 C-112.05039063 72.64332031 -112.47578125 71.47414063 -112.9140625 70.26953125 C-113.83309499 67.50251617 -114.51374164 64.86892433 -115 62 C-117.22825644 64.22825644 -117.69239369 65.65761628 -118.625 68.625 C-118.88539062 69.44226563 -119.14578125 70.25953125 -119.4140625 71.1015625 C-119.60742188 71.72804688 -119.80078125 72.35453125 -120 73 C-128.4690583 73.92017937 -128.4690583 73.92017937 -132.22265625 71.6640625 C-133.91890579 70.18027954 -135.49407433 68.67546697 -137 67 C-135.62087933 63.76155249 -134.17891571 62.07787538 -131.3515625 60.00390625 C-130.23092407 59.17632812 -130.23092407 59.17632812 -129.08764648 58.33203125 C-127.86863647 57.45611328 -127.86863647 57.45611328 -126.625 56.5625 C-125.77429932 55.94632813 -124.92359863 55.33015625 -124.04711914 54.6953125 C-100.33547976 37.67045552 -75.4200059 23.1907749 -48 13 C-47.16307617 12.68482422 -46.32615234 12.36964844 -45.46386719 12.04492188 C-35.81110753 8.43690637 -26.05207644 5.32688757 -16.125 2.5625 C-14.74248047 2.17348511 -14.74248047 2.17348511 -13.33203125 1.77661133 C-8.77957087 0.55039769 -4.76173331 -0.32216348 0 0 Z " fill="#1D252C" transform="translate(183,63)"/>
<path d="M0 0 C0.96550781 0.01353516 1.93101563 0.02707031 2.92578125 0.04101562 C5.28445425 0.07604542 7.64191771 0.12515916 10 0.1875 C10 0.8475 10 1.5075 10 2.1875 C8.15969358 3.28930158 6.27558317 4.31827766 4.375 5.3125 C-1.95468971 8.87715406 -5.76809952 12.72369903 -9 19.1875 C-9.92057933 27.49901624 -9.13187478 34.40909866 -4 41.1875 C0.17469003 45.37055614 4.31761485 47.53773612 10.25 47.875 C21.20830273 47.21688964 34.36779951 41.3864543 42.4375 33.9375 C44.75083048 29.86603836 46.39650564 25.58005104 48 21.1875 C52.40707324 25.0769895 54.57273345 28.85577195 56.8125 34.25 C57.12380859 34.95705078 57.43511719 35.66410156 57.75585938 36.39257812 C59.26409122 39.92283508 60 42.29742405 60 46.1875 C58.99066406 46.44402344 57.98132813 46.70054688 56.94140625 46.96484375 C39.22685787 51.60600947 21.89204638 57.79315693 5.12475586 65.15576172 C1.7650485 66.60460575 -0.25878319 67.1875 -4 67.1875 C-5.421875 65.52734375 -5.421875 65.52734375 -6.75 63.125 C-7.51957031 61.73667969 -7.51957031 61.73667969 -8.3046875 60.3203125 C-8.86414063 59.28648438 -9.42359375 58.25265625 -10 57.1875 C-10.93199219 55.60582031 -10.93199219 55.60582031 -11.8828125 53.9921875 C-16.25173698 46.4419339 -19.51843043 38.65475373 -22.4375 30.4375 C-22.77958496 29.49173096 -23.12166992 28.54596191 -23.47412109 27.5715332 C-25.68380114 21.10948416 -26.68297623 15.00475274 -27 8.1875 C-17.88534428 2.16531676 -10.93766235 -0.2941854 0 0 Z " fill="#FBC21B" transform="translate(103,7.8125)"/>
<path d="M0 0 C8.09552997 4.69540738 12.03862134 9.85884177 15.125 18.8125 C16.55439608 27.42942675 15.22348677 34.67728092 10.125 41.8125 C6.34982511 45.90629579 2.30049221 48.52631767 -3.23046875 49.25390625 C-10.83161366 49.49410553 -16.24567158 49.31229768 -22.07421875 43.87890625 C-28.92056321 36.02268886 -31.39292796 28.42508907 -31.1796875 18 C-30.43650861 10.22520544 -26.59409221 6.06140879 -20.77734375 1.16015625 C-15.32886987 -2.69964558 -6.07365638 -2.41039726 0 0 Z " fill="#F8CFDA" transform="translate(217.875,82.1875)"/>
<path d="M0 0 C2.28997304 2.28997304 2.60465162 3.57774462 3.4453125 6.6640625 C3.71335693 7.6135376 3.98140137 8.5630127 4.25756836 9.54125977 C4.5438208 10.55889404 4.83007324 11.57652832 5.125 12.625 C9.35923846 27.06839572 15.89811858 39.41643867 23.53125 52.3046875 C25 55 25 55 25 57 C24.49774902 57.25579834 23.99549805 57.51159668 23.47802734 57.77514648 C13.56172117 62.84857917 3.9414683 68.07583082 -5.3125 74.28515625 C-8 76 -8 76 -11 77 C-18.90025867 59.66545185 -19.12693131 40.8713741 -13 23 C-9.76091705 14.53357858 -5.490856 7.19659529 0 0 Z " fill="#F3A71D" transform="translate(68,23)"/>
<path d="M0 0 C5.6449449 3.34833234 9.12405201 7.66654676 12.7421875 13.09375 C13.5908904 20.94918619 13.80857978 27.79499203 8.7421875 34.09375 C3.60326846 38.84725011 -0.63403899 40.70169057 -7.59765625 40.52734375 C-14.0951162 39.4682864 -18.81899051 35.10711596 -22.8203125 30.09375 C-26.43410707 24.164711 -26.2137931 17.80209661 -25.2578125 11.09375 C-23.00515327 6.15522783 -19.54294449 3.28480574 -15.2578125 0.09375 C-10.26871832 -1.56928139 -4.96030959 -1.99098932 0 0 Z " fill="#F28891" transform="translate(116.2578125,137.90625)"/>
<path d="M0 0 C2.87003719 2.87003719 3.51406585 6.39664497 4.6875 10.1875 C12.90118024 35.65651221 26.41651527 59.88532205 49.59375 74.37109375 C52 76 52 76 53 78 C35.11022248 75.87479593 19.29788865 67.65784894 7.953125 53.43359375 C3.3898741 46.73497544 0.9935873 39.81357603 -1 32 C-1.176521 31.36852051 -1.35304199 30.73704102 -1.53491211 30.08642578 C-2.36390117 26.36750686 -2.18456034 22.60759958 -2.1875 18.8125 C-2.19974609 17.99974609 -2.21199219 17.18699219 -2.22460938 16.34960938 C-2.23819816 10.6559064 -1.45956314 5.50003085 0 0 Z " fill="#F5CED9" transform="translate(69,131)"/>
<path d="M0 0 C2.71450385 2.71450385 3.20661387 5.7699092 4.1875 9.375 C10.00107739 29.69747173 16.6267728 50.94141651 31 67 C31.68578125 67.82628906 32.3715625 68.65257812 33.078125 69.50390625 C41.67776487 79.59194533 52.09862177 86.77465544 65 90 C65.33 91.65 65.66 93.3 66 95 C68.31 95.33 70.62 95.66 73 96 C71 98 71 98 67.625 98.4375 C53.28576463 98.02262158 39.70148772 86.53898374 30 77 C28.98486328 76.00419922 28.98486328 76.00419922 27.94921875 74.98828125 C13.5971296 59.88838785 6.35775399 40.17971094 -0.5625 20.9375 C-0.97628906 19.79152344 -1.39007813 18.64554688 -1.81640625 17.46484375 C-5.16317544 7.66753591 -5.16317544 7.66753591 -4.3125 4.1875 C-3 2 -3 2 0 0 Z " fill="#0F4466" transform="translate(72,116)"/>
<path d="M0 0 C4.03762177 1.80685312 6.53939832 4.30909748 9 8 C9.81583119 13.56248536 9.26381982 18.32185826 6 23 C0.5729158 27.1833774 -3.69952763 28.40460872 -10.421875 28.35546875 C-14.47293259 27.79691384 -17.1601647 25.86403845 -20 23 C-22.98515795 18.52226307 -22.84841138 14.24406002 -22 9 C-17.15531635 0.11283681 -9.49216306 -1.24080563 0 0 Z " fill="#FAF6F7" transform="translate(167,86)"/>
<path d="M0 0 C18.71274758 4.69597468 38.95367388 13.26380822 51 29 C50.16976318 29.029729 50.16976318 29.029729 49.32275391 29.06005859 C36.08030535 29.37844476 36.08030535 29.37844476 23.0703125 31.59765625 C20.3611363 32.12415653 17.75207524 32.05880503 15 32 C14.70867187 31.04480469 14.41734375 30.08960937 14.1171875 29.10546875 C10.79165023 18.50420078 6.41351421 9.12692407 0 0 Z " fill="#326A8B" transform="translate(156,19)"/>
<path d="M0 0 C3.74358093 2.27585952 7.02044301 5.04088602 9 9 C9.51564155 15.08457029 8.97024535 19.2162793 5 24 C-0.28815758 28.10102016 -4.2976279 29.56799764 -11 29 C-15.61862787 26.42422676 -19.30640263 24.0807921 -21 19 C-21.59030743 14.72587534 -21.96060727 10.71469962 -19.80078125 6.859375 C-14.34220795 0.31458686 -8.46008362 -1.57315605 0 0 Z " fill="#FAF6F7" transform="translate(133,100)"/>
<path d="M0 0 C0.66 0.33 1.32 0.66 2 1 C3.11479195 4.71597316 2.99575979 7.45959793 2.03515625 11.1328125 C0.91945228 15.92498028 0.6533534 20.46692821 0.6875 25.375 C0.69168945 26.20499512 0.69587891 27.03499023 0.70019531 27.89013672 C0.81786265 34.30050304 1.67249761 39.99062961 4 46 C4.2784375 46.76183594 4.556875 47.52367187 4.84375 48.30859375 C10.89659313 63.36243205 22.06301183 72.71260562 36.4921875 79.5625 C42.34148412 81.95953915 48.2715646 83.33546814 54.4765625 84.44140625 C57.36815337 85.08149525 60.03895121 86.02659623 62.8125 87.0625 C63.78832031 87.42472656 64.76414062 87.78695312 65.76953125 88.16015625 C66.87361328 88.57587891 66.87361328 88.57587891 68 89 C68 89.33 68 89.66 68 90 C45.49765939 90.60035889 28.61730546 86.77495227 11.6953125 70.828125 C5.39996919 64.34201372 1.47902158 57.23085594 -2 49 C-2.36222656 48.15308594 -2.72445312 47.30617187 -3.09765625 46.43359375 C-7.5124235 33.64103562 -6.91559054 14.7347789 -1.375 2.375 C-0.694375 1.199375 -0.694375 1.199375 0 0 Z " fill="#E98495" transform="translate(67,124)"/>
<path d="M0 0 C0.58523437 0.2165625 1.17046875 0.433125 1.7734375 0.65625 C0.8453125 1.06875 -0.0828125 1.48125 -1.0390625 1.90625 C-4.87631925 4.0129792 -6.63570533 5.72253561 -7.9140625 9.90625 C-8.0171875 10.48375 -8.1203125 11.06125 -8.2265625 11.65625 C-7.5665625 11.65625 -6.9065625 11.65625 -6.2265625 11.65625 C-5.9996875 10.91375 -5.7728125 10.17125 -5.5390625 9.40625 C-3.84230028 5.85112917 -2.70470628 4.5727782 0.7734375 2.65625 C5.41129273 1.81756521 9.65741073 1.75666547 14.04296875 3.62109375 C17.15093578 5.8048995 18.5360757 7.54361654 19.3359375 11.29296875 C19.59275774 17.17575737 18.81851247 21.14888075 14.7734375 25.65625 C10.29570057 28.64140795 6.01749752 28.50466138 0.7734375 27.65625 C-3.61816176 25.26224545 -6.1755948 22.17034159 -8.2265625 17.65625 C-7.94958076 21.62632156 -7.45972027 23.38014212 -4.8515625 26.46875 C-0.25844244 30.29635005 4.08000293 29.91549571 9.7734375 29.65625 C12.66430724 29.23174372 12.66430724 29.23174372 14.7734375 28.65625 C11.79304005 31.92049483 9.58974944 32.55772959 5.1484375 33.09375 C-0.3575297 33.03268567 -4.15201111 30.11796236 -8.2265625 26.65625 C-11.49844892 22.98777128 -11.6418306 19.66467929 -11.4375 14.92578125 C-10.81770808 8.25727932 -9.03736724 4.90698889 -4.078125 0.625 C-2.2265625 -0.34375 -2.2265625 -0.34375 0 0 Z " fill="#FCD16B" transform="translate(123.2265625,11.34375)"/>
<path d="M0 0 C2.28997304 2.28997304 2.60465162 3.57774462 3.4453125 6.6640625 C3.71335693 7.6135376 3.98140137 8.5630127 4.25756836 9.54125977 C4.5438208 10.55889404 4.83007324 11.57652832 5.125 12.625 C9.35923846 27.06839572 15.89811858 39.41643867 23.53125 52.3046875 C25 55 25 55 25 57 C18.375 61 18.375 61 15 61 C12.97090851 56.9669391 10.94469624 52.93244738 8.92089844 48.89672852 C8.23512376 47.53014158 7.54862563 46.1639174 6.86132812 44.7980957 C-7.51084796 16.23234513 -7.51084796 16.23234513 -7 10 C-4.98131751 6.39446658 -2.62043272 3.18895553 0 0 Z " fill="#E9E9E8" transform="translate(68,23)"/>
<path d="M0 0 C0.96550781 0.01353516 1.93101563 0.02707031 2.92578125 0.04101562 C5.28445425 0.07604542 7.64191771 0.12515916 10 0.1875 C10 0.8475 10 1.5075 10 2.1875 C5.77674928 4.22969087 1.91611911 4.4585157 -2.6875 4.5625 C-9.48824054 4.829761 -14.85123838 6.16522734 -21 9.1875 C-20.56925058 16.28965861 -19.25082633 22.59359191 -16.9375 29.3125 C-16.63166992 30.21540771 -16.32583984 31.11831543 -16.01074219 32.04858398 C-12.85692776 41.06846141 -9.15344031 50.8086077 -3.265625 58.43359375 C-2 60.1875 -2 60.1875 -2 63.1875 C6.38278641 60.51625569 14.45935585 57.22073481 22.5859375 53.859375 C40.79268419 46.45172806 40.79268419 46.45172806 46 48.1875 C45 50.1875 45 50.1875 42.80126953 51.11376953 C41.3566333 51.5872583 41.3566333 51.5872583 39.8828125 52.0703125 C38.80918457 52.42939697 37.73555664 52.78848145 36.62939453 53.15844727 C35.47294434 53.53928467 34.31649414 53.92012207 33.125 54.3125 C23.82755369 57.43447113 14.73740847 60.7790475 5.78955078 64.79931641 C2.22535439 66.37685862 -0.0360801 67.1875 -4 67.1875 C-5.421875 65.52734375 -5.421875 65.52734375 -6.75 63.125 C-7.51957031 61.73667969 -7.51957031 61.73667969 -8.3046875 60.3203125 C-8.86414063 59.28648438 -9.42359375 58.25265625 -10 57.1875 C-10.93199219 55.60582031 -10.93199219 55.60582031 -11.8828125 53.9921875 C-16.25173698 46.4419339 -19.51843043 38.65475373 -22.4375 30.4375 C-22.77958496 29.49173096 -23.12166992 28.54596191 -23.47412109 27.5715332 C-25.68380114 21.10948416 -26.68297623 15.00475274 -27 8.1875 C-17.88534428 2.16531676 -10.93766235 -0.2941854 0 0 Z " fill="#F5AF1B" transform="translate(103,7.8125)"/>
<path d="M0 0 C0.6875 2.25390625 0.6875 2.25390625 1 5 C-0.81971051 8.10667683 -3.46277167 10.46277167 -6 13 C-6.50660156 13.60972656 -7.01320312 14.21945313 -7.53515625 14.84765625 C-10.42820445 17.97747565 -12.23235955 18.92070527 -16.5546875 19.3671875 C-20.05768109 19.37423578 -23.50753718 19.26157142 -27 19 C-26.34 15.37 -25.68 11.74 -25 8 C-26.98 7.34 -28.96 6.68 -31 6 C-31 5.34 -31 4.68 -31 4 C-31.99 3.67 -32.98 3.34 -34 3 C-22.5311063 0.76993734 -11.68459143 -0.42981467 0 0 Z " fill="#DE8A26" transform="translate(208,55)"/>
<path d="M0 0 C2.0625 0.4375 2.0625 0.4375 4 1 C4.43733559 9.16359773 3.02189458 14.82745874 -2.1875 21.25 C-5.66702236 24.99378988 -9.24430092 27.20439026 -14 29 C-15.39605469 29.53367188 -15.39605469 29.53367188 -16.8203125 30.078125 C-24.73123903 32.37171058 -33.6866386 32.16237316 -41.02734375 28.265625 C-49.48995984 22.83614458 -49.48995984 22.83614458 -50.9375 17.625 C-50.9684375 16.325625 -50.9684375 16.325625 -51 15 C-46.91017188 15.51832891 -44.94271412 16.58377925 -42 19.4375 C-36.29626718 24.94574198 -31.1098528 25.4814502 -23.375 25.40234375 C-18.94848483 24.87464576 -15.73376076 23.33740405 -11.92578125 21.09375 C-10 20 -10 20 -8 20 C-7.56880859 19.12794922 -7.56880859 19.12794922 -7.12890625 18.23828125 C-6.42862986 16.84984398 -5.71046278 15.47009226 -4.96484375 14.10546875 C-2.60683236 9.70324976 -1.51362552 6.03353012 -1 1 C-0.67 0.67 -0.34 0.34 0 0 Z " fill="#C81F49" transform="translate(187,149)"/>
<path d="M0 0 C4.03762177 1.80685312 6.53939832 4.30909748 9 8 C9.81583119 13.56248536 9.26381982 18.32185826 6 23 C0.5729158 27.1833774 -3.69952763 28.40460872 -10.421875 28.35546875 C-14.47293259 27.79691384 -17.1601647 25.86403845 -20 23 C-22.98515795 18.52226307 -22.84841138 14.24406002 -22 9 C-17.15531635 0.11283681 -9.49216306 -1.24080563 0 0 Z M-17 8 C-18.61678854 11.23357709 -18.56923902 14.50420273 -18 18 C-15.97281325 21.07347668 -14.4404212 22.57369887 -10.875 23.62890625 C-5.76537757 24.44886255 -2.37169029 24.01854806 2 21 C4.70302538 18.56727716 5.25152111 16.5244769 5.5 13 C5.3853717 9.58025561 5.1641814 9.16850197 2.625 6.5625 C-4.29649806 2.44256068 -10.69110351 2.63743798 -17 8 Z " fill="#E88190" transform="translate(167,86)"/>
<path d="M0 0 C3.74358093 2.27585952 7.02044301 5.04088602 9 9 C9.51564155 15.08457029 8.97024535 19.2162793 5 24 C-0.28815758 28.10102016 -4.2976279 29.56799764 -11 29 C-15.61862787 26.42422676 -19.30640263 24.0807921 -21 19 C-21.59030743 14.72587534 -21.96060727 10.71469962 -19.80078125 6.859375 C-14.34220795 0.31458686 -8.46008362 -1.57315605 0 0 Z M-16 9 C-17.41856346 13.40711008 -17.5617546 16.7743536 -15.625 21 C-13.71057196 23.64178348 -13.71057196 23.64178348 -10.70703125 24.2734375 C-4.19091246 24.5938312 -4.19091246 24.5938312 1.625 22.0625 C4.29537953 18.61911587 5.0835756 16.44858247 5.3125 12.15625 C5.13114595 9.66282461 5.13114595 9.66282461 2.6875 7 C-0.97768875 4.27241768 -3.25112749 3.57493152 -7.89453125 3.66796875 C-11.79869187 4.28365271 -13.52077525 6.03702407 -16 9 Z " fill="#E88493" transform="translate(133,100)"/>
<path d="M0 0 C5.50200952 0.22457182 8.43068143 1.464757 12.421875 5.28515625 C17.84889316 11.18233687 18.71368409 15.83947718 18.44921875 23.7734375 C17.57063519 30.08395944 14.69221295 34.76351535 9.9375 38.9375 C5.26283368 42.21971253 5.26283368 42.21971253 3 43 C2.01 42.67 1.02 42.34 0 42 C0 41.34 0 40.68 0 40 C-1.98567708 40.03255208 -3.97135417 40.06510417 -5.95703125 40.09765625 C-8 40 -8 40 -11 39 C-11 38.34 -11 37.68 -11 37 C-10.3709375 37.04640625 -9.741875 37.0928125 -9.09375 37.140625 C-2.79116121 37.40639682 1.80919156 36.72827119 7 33 C11.53389958 28.11733891 12.30444645 25.03402824 12.2109375 18.53515625 C11.86655729 14.39621638 10.63375314 11.41758224 7.46484375 8.66796875 C6.91957031 8.24128906 6.37429687 7.81460937 5.8125 7.375 C4.884375 6.59125 3.95625 5.8075 3 5 C3 3.68 3 2.36 3 1 C2.01 0.67 1.02 0.34 0 0 Z " fill="#222A30" transform="translate(133,6)"/>
<path d="M0 0 C12.53921778 -1.03219171 12.53921778 -1.03219171 17.625 2.625 C22.28498876 6.85241596 24.1273307 10.72142143 24.4375 17 C24.2888897 21.70599291 23.16071965 24.4002915 20 28 C15.4298322 32.27531827 10.13947947 32.29828497 4.14453125 32.21875 C-0.71328057 31.7232355 -3.90183129 28.54076425 -7 25 C-8.1577506 21.52674819 -8.06866652 18.63932552 -8 15 C-7.62875 15.804375 -7.62875 15.804375 -7.25 16.625 C-4.83449315 21.21446302 -2.49064621 25.257924 2 28 C5.72685547 28.66650172 9.26531351 28.60861558 13 28 C15.89683868 25.7984026 17.39297231 24.21405538 19 21 C19.69823068 15.51137657 20.0081443 11.38960431 16.6875 6.8125 C12.26652177 3.93886415 7.03356037 4.02551499 2 5 C-1.22344672 7.4340312 -2.7746971 9.66204565 -5 13 C-5.66 13 -6.32 13 -7 13 C-6.86089306 10.00920072 -6.7500482 7.77094091 -4.59765625 5.55859375 C-3.07564989 4.35889462 -1.53852302 3.17844317 0 2 C0 1.34 0 0.68 0 0 Z " fill="#7990A2" transform="translate(122,10)"/>
<path d="M0 0 C0.66 0 1.32 0 2 0 C2.01417969 0.845625 2.02835937 1.69125 2.04296875 2.5625 C2.3510251 9.88924553 2.87055123 15.50684948 8 21 C9.9779014 22.68873453 11.98157153 24.21511374 14.1328125 25.67578125 C15.96509975 26.97524856 17.46071561 28.36988827 19 30 C14.01920617 31.66026461 9.69726371 31.59903425 4.8125 29.875 C0.06842651 26.71228434 -3.60183921 22.59264316 -5 17 C-5.53665861 12.08750966 -5.88304456 7.68370163 -3.0625 3.4375 C-1 1 -1 1 0 0 Z " fill="#899DAF" transform="translate(102,21)"/>
<path d="M0 0 C7.86379677 2.18340181 15.41675284 4.99285026 23 8 C21.19587357 11.26460973 20.16605307 12.88929795 17 15 C12.44183707 15.75485501 7.96797868 15.91816501 3.72265625 13.9375 C0.98177345 11.87483156 -0.72831489 10.27483015 -1.45703125 6.85546875 C-1.5 4.6875 -1.5 4.6875 -1 1 C-0.67 0.67 -0.34 0.34 0 0 Z " fill="#FED474" transform="translate(118,24)"/>
<path d="M0 0 C1.43666016 0.02707031 1.43666016 0.02707031 2.90234375 0.0546875 C3.61519531 0.07789063 4.32804687 0.10109375 5.0625 0.125 C5.0625 1.445 5.0625 2.765 5.0625 4.125 C-6.76697629 8.19535743 -18.45734014 9.27747942 -30.9375 8.125 C-31.5975 7.795 -32.2575 7.465 -32.9375 7.125 C-32.9375 5.805 -32.9375 4.485 -32.9375 3.125 C-32.36829834 3.10518066 -31.79909668 3.08536133 -31.21264648 3.06494141 C-28.59968288 2.96888242 -25.98743198 2.85953593 -23.375 2.75 C-22.03211914 2.70359375 -22.03211914 2.70359375 -20.66210938 2.65625 C-13.57311385 2.3446458 -7.04933778 -0.17405772 0 0 Z " fill="#F9BA13" transform="translate(57.9375,135.875)"/>
<path d="M0 0 C2.46800047 1.15173355 4.04783565 2.04783565 6 4 C5.55398437 4.41660889 5.10796875 4.83321777 4.6484375 5.26245117 C2.97887512 7.02226685 1.84525043 8.70961802 0.625 10.80078125 C0.19703125 11.53103516 -0.2309375 12.26128906 -0.671875 13.01367188 C-1.11015625 13.77228516 -1.5484375 14.53089844 -2 15.3125 C-2.65742187 16.43301758 -2.65742187 16.43301758 -3.328125 17.57617188 C-5.70367397 21.65109699 -7.94612574 25.75037201 -10 30 C-12.86724686 29.42655063 -13.8614515 29.1385485 -16 27 C-14.27837361 23.80837301 -12.54633715 20.62250766 -10.8125 17.4375 C-10.32974609 16.54224609 -9.84699219 15.64699219 -9.34960938 14.72460938 C-6.5231739 9.54597256 -3.54157555 4.71994255 0 0 Z " fill="#DF8B24" transform="translate(80,197)"/>
<path d="M0 0 C0.721875 0.268125 1.44375 0.53625 2.1875 0.8125 C2.1875 5.5393161 0.64782336 7.71510775 -2.5625 10.9375 C-3.97063258 12.23846497 -5.38656769 13.53106944 -6.8125 14.8125 C-8.0190625 16.05 -8.0190625 16.05 -9.25 17.3125 C-13.02600094 19.52284201 -16.53996499 19.14760079 -20.8125 18.8125 C-20.8125 18.1525 -20.8125 17.4925 -20.8125 16.8125 C-19.23828125 15.26171875 -19.23828125 15.26171875 -17.125 13.5 C-12.88314112 9.89292634 -8.97039418 6.14407831 -5.3125 1.9375 C-2.8125 -0.1875 -2.8125 -0.1875 0 0 Z " fill="#FBBA12" transform="translate(206.8125,55.1875)"/>
<path d="M0 0 C3.93756554 3.58130961 6.77135357 7.75475498 9.75 12.125 C10.25660156 12.85332031 10.76320312 13.58164063 11.28515625 14.33203125 C11.76339844 15.02941406 12.24164063 15.72679687 12.734375 16.4453125 C13.16975586 17.07969238 13.60513672 17.71407227 14.05371094 18.36767578 C15 20 15 20 15 22 C15.66 22.33 16.32 22.66 17 23 C13.25 26 13.25 26 11 26 C9.8425293 24.64233398 9.8425293 24.64233398 8.57421875 22.74609375 C7.87329102 21.7106543 7.87329102 21.7106543 7.15820312 20.65429688 C6.67287109 19.92275391 6.18753906 19.19121094 5.6875 18.4375 C4.73369136 17.01911518 3.77926828 15.60114333 2.82421875 14.18359375 C2.35806152 13.48862793 1.8919043 12.79366211 1.41162109 12.07763672 C-0.67137872 9.01185871 -2.83154729 6.00581514 -5 3 C-3.35 2.01 -1.7 1.02 0 0 Z " fill="#DF8B25" transform="translate(185,195)"/>
<path d="M0 0 C1.48696545 0.01509033 2.9739459 0.02877096 4.4609375 0.04101562 C8.05761014 0.07363961 11.65370473 0.1251753 15.25 0.1875 C15.25 0.5175 15.25 0.8475 15.25 1.1875 C1.885 1.6825 1.885 1.6825 -11.75 2.1875 C-9.11 2.1875 -6.47 2.1875 -3.75 2.1875 C-3.75 2.5175 -3.75 2.8475 -3.75 3.1875 C-5.2040625 3.3421875 -5.2040625 3.3421875 -6.6875 3.5 C-9.60464481 3.90398521 -12.14963778 4.64120031 -14.90625 5.66796875 C-20.46494819 7.56374265 -25.90986778 7.94582798 -31.73242188 8.359375 C-35.82057254 8.70588492 -39.27469854 9.2585413 -43.08984375 10.8125 C-46.73659726 12.18246503 -47.32971395 12.31895231 -50.75 11.1875 C-47.33720418 9.90610723 -43.91910591 8.63944914 -40.5 7.375 C-39.076875 6.84036133 -39.076875 6.84036133 -37.625 6.29492188 C-24.84223831 1.58775625 -13.54801186 -0.24203752 0 0 Z " fill="#D97D85" transform="translate(178.75,73.8125)"/>
<path d="M0 0 C4.09319216 0.51965744 6.0963352 1.60106806 9.0625 4.4375 C11.60747507 6.85144665 13.82028485 8.52487441 17 10 C18.35113205 10.97581759 19.68946944 11.97029741 21 13 C20.01 13.495 20.01 13.495 19 14 C22.96 14.33 26.92 14.66 31 15 C31 15.33 31 15.66 31 16 C20.09740413 16.55831216 12.7237345 15.8220083 4 9.125 C1.47843204 6.84219483 1.01711728 6.06162221 0.0625 2.625 C0.0315625 1.325625 0.0315625 1.325625 0 0 Z " fill="#CA2850" transform="translate(136,164)"/>
<path d="M0 0 C3.9975 1.5375 3.9975 1.5375 5.4375 3.9375 C5.3125 7.5 5.3125 7.5 4.4375 10.9375 C1.20496204 13.09252531 0.18599077 13.40606135 -3.5625 12.9375 C-5.375 11.8125 -5.375 11.8125 -6.5625 9.9375 C-7.11205021 6.24766285 -7.01519677 4.59139533 -4.875 1.5 C-2.5625 -0.0625 -2.5625 -0.0625 0 0 Z " fill="#CA264E" transform="translate(222.5625,97.0625)"/>
<path d="M0 0 C4.40707324 3.8894895 6.57273345 7.66827195 8.8125 13.0625 C9.12380859 13.76955078 9.43511719 14.47660156 9.75585938 15.20507812 C11.26409122 18.73533508 12 21.10992405 12 25 C7.23947038 26.97387813 4.03511899 27.0070238 -1 26 C1.91765 24.0549 3.62537285 23.54723683 7 23 C5.42848667 17.3603848 3.73244313 12.20465358 1 7 C1 6.34 1 5.68 1 5 C0.34 4.67 -0.32 4.34 -1 4 C-0.67 2.68 -0.34 1.36 0 0 Z " fill="#F4AD1B" transform="translate(151,29)"/>
<path d="M0 0 C3.0625 0.25 3.0625 0.25 6.0625 2.25 C6.71075345 8.19232331 6.71075345 8.19232331 4.875 11.1875 C2.40200907 12.63718434 0.88365488 12.67317323 -1.9375 12.25 C-3.75 11.1875 -3.75 11.1875 -4.9375 9.25 C-5.25 5.6875 -5.25 5.6875 -4.9375 2.25 C-2.9375 0.25 -2.9375 0.25 0 0 Z " fill="#C71F48" transform="translate(201.9375,103.75)"/>
<path d="M0 0 C0.58523437 0.2165625 1.17046875 0.433125 1.7734375 0.65625 C0.8453125 1.06875 -0.0828125 1.48125 -1.0390625 1.90625 C-4.87631925 4.0129792 -6.63570533 5.72253561 -7.9140625 9.90625 C-8.0171875 10.48375 -8.1203125 11.06125 -8.2265625 11.65625 C-7.5665625 11.65625 -6.9065625 11.65625 -6.2265625 11.65625 C-6.2265625 14.29625 -6.2265625 16.93625 -6.2265625 19.65625 C-6.8865625 18.99625 -7.5465625 18.33625 -8.2265625 17.65625 C-7.94958076 21.62632156 -7.45972027 23.38014212 -4.8515625 26.46875 C-0.25844244 30.29635005 4.08000293 29.91549571 9.7734375 29.65625 C12.66430724 29.23174372 12.66430724 29.23174372 14.7734375 28.65625 C11.79304005 31.92049483 9.58974944 32.55772959 5.1484375 33.09375 C-0.3575297 33.03268567 -4.15201111 30.11796236 -8.2265625 26.65625 C-11.49844892 22.98777128 -11.6418306 19.66467929 -11.4375 14.92578125 C-10.81770808 8.25727932 -9.03736724 4.90698889 -4.078125 0.625 C-2.2265625 -0.34375 -2.2265625 -0.34375 0 0 Z " fill="#C2A542" transform="translate(123.2265625,11.34375)"/>
<path d="M0 0 C0 0.66 0 1.32 0 2 C0.33 2.66 0.66 3.32 1 4 C-3.41029783 6.20949832 -7.48940324 6.2370648 -12.3125 6.125 C-13.05306641 6.11597656 -13.79363281 6.10695312 -14.55664062 6.09765625 C-16.37123467 6.07424213 -18.18566071 6.03837615 -20 6 C-19.67 5.34 -19.34 4.68 -19 4 C-20.32 3.01 -21.64 2.02 -23 1 C-21.86820313 1.01160156 -20.73640625 1.02320313 -19.5703125 1.03515625 C-18.08854331 1.04453454 -16.60677235 1.0536347 -15.125 1.0625 C-14.37863281 1.07087891 -13.63226563 1.07925781 -12.86328125 1.08789062 C-8.29693571 1.10845975 -4.52348941 -0.11903919 0 0 Z " fill="#C51541" transform="translate(174,173)"/>
<path d="M0 0 C4.29 0 8.58 0 13 0 C12.67 0.99 12.34 1.98 12 3 C11.00419922 3.12955078 11.00419922 3.12955078 9.98828125 3.26171875 C4.1240293 4.19486249 0.8059523 5.12362362 -3 10 C-3.99 11.485 -3.99 11.485 -5 13 C-5.66 13 -6.32 13 -7 13 C-6.86089306 10.00920072 -6.7500482 7.77094091 -4.59765625 5.55859375 C-3.07564989 4.35889462 -1.53852302 3.17844317 0 2 C0 1.34 0 0.68 0 0 Z " fill="#758DA1" transform="translate(122,10)"/>
<path d="M0 0 C10.74515282 -0.86037701 10.74515282 -0.86037701 14.6875 2.3125 C17 5 17 5 17 8 C11.14340094 6.33846988 5.5409866 4.52958084 0 2 C0 1.34 0 0.68 0 0 Z " fill="#F6B515" transform="translate(124,14)"/>
<path d="M0 0 C-0.99 0.33 -1.98 0.66 -3 1 C-3.28617188 1.65484375 -3.57234375 2.3096875 -3.8671875 2.984375 C-5 5 -5 5 -7.3828125 5.828125 C-8.28773438 5.96734375 -9.19265625 6.1065625 -10.125 6.25 C-11.03507813 6.39953125 -11.94515625 6.5490625 -12.8828125 6.703125 C-13.58148438 6.80109375 -14.28015625 6.8990625 -15 7 C-14.67 7.99 -14.34 8.98 -14 10 C-15.65 10.33 -17.3 10.66 -19 11 C-18.34 9.35 -17.68 7.7 -17 6 C-17.66 5.34 -18.32 4.68 -19 4 C-16.58732675 3.132758 -14.17095531 2.28103064 -11.75 1.4375 C-11.06808594 1.19064453 -10.38617188 0.94378906 -9.68359375 0.68945312 C-3.41657839 -1.47053761 -3.41657839 -1.47053761 0 0 Z " fill="#23292E" transform="translate(159,70)"/>
<path d="M0 0 C3.29714793 0.32971479 4.6226839 0.6226839 7 3 C6.44444444 7.55555556 6.44444444 7.55555556 5 9 C2 9.125 2 9.125 -1 9 C-2 8 -2 8 -2.1875 5.0625 C-2 2 -2 2 0 0 Z " fill="#181818" transform="translate(123,112)"/>
<path d="M0 0 C0.66 0.66 1.32 1.32 2 2 C1.625 5.125 1.625 5.125 1 8 C-1.3125 8.625 -1.3125 8.625 -4 9 C-4.99 8.34 -5.98 7.68 -7 7 C-7.1875 3.875 -7.1875 3.875 -7 1 C-4.48718205 -0.25640898 -2.78302919 -0.20872719 0 0 Z " fill="#171717" transform="translate(160,98)"/>
<path d="M0 0 C6 2 12 4 18 6 C18 6.66 18 7.32 18 8 C8.65112705 8.91290984 8.65112705 8.91290984 4.7109375 6.734375 C2.94812172 5.2399715 1.39747518 3.84104239 0 2 C0 1.34 0 0.68 0 0 Z " fill="#F8B710" transform="translate(117,31)"/>
<path d="M0 0 C2.433375 2.26007826 4.15866292 4.63948835 5.9375 7.4375 C8.03808459 10.65385645 10.10297183 13.43724431 13 16 C12.34 16 11.68 16 11 16 C11.99 17.65 12.98 19.3 14 21 C13.01 21 12.02 21 11 21 C9.33220867 18.77627822 7.87574752 16.61501386 6.4375 14.25 C5.83905273 13.29867187 5.83905273 13.29867187 5.22851562 12.328125 C0 3.94853402 0 3.94853402 0 0 Z " fill="#EBD3DC" transform="translate(89,160)"/>
<path d="M0 0 C2.36120297 0.25392418 4.7150539 0.57798123 7.0625 0.9375 C8.35285156 1.13214844 9.64320313 1.32679688 10.97265625 1.52734375 C11.97167969 1.68332031 12.97070312 1.83929688 14 2 C13.67 2.66 13.34 3.32 13 4 C11.68 4 10.36 4 9 4 C8.67 4.66 8.34 5.32 8 6 C4.625 5.75 4.625 5.75 1 5 C-0.4375 2.9375 -0.4375 2.9375 -1 1 C-0.67 0.67 -0.34 0.34 0 0 Z " fill="#D27A8D" transform="translate(137,207)"/>
<path d="M0 0 C-0.928125 0.4125 -1.85625 0.825 -2.8125 1.25 C-6.64975675 3.3567292 -8.40914283 5.06628561 -9.6875 9.25 C-9.790625 9.8275 -9.89375 10.405 -10 11 C-9.34 11 -8.68 11 -8 11 C-8 13.64 -8 16.28 -8 19 C-8.66 18.34 -9.32 17.68 -10 17 C-10.66 17.33 -11.32 17.66 -12 18 C-12.91501926 8.62952503 -12.91501926 8.62952503 -10.734375 4.74609375 C-5.28771158 -1.58631347 -5.28771158 -1.58631347 0 0 Z " fill="#AFA46E" transform="translate(125,12)"/>
<path d="M0 0 C0 0.33 0 0.66 0 1 C-7.26 1 -14.52 1 -22 1 C-21.67 0.34 -21.34 -0.32 -21 -1 C-13.52036531 -2.49592694 -7.18322738 -2.34554363 0 0 Z " fill="#E77D8C" transform="translate(189,78)"/>
<path d="M0 0 C3.50334561 2.73431853 6.46662716 5.4572929 9.3125 8.875 C13.04095892 13.27224078 17.34931371 16.62535235 22 20 C21.34 20.33 20.68 20.66 20 21 C2.7991624 8.35352129 2.7991624 8.35352129 0 0 Z " fill="#11375B" transform="translate(98,179)"/>
<path d="M0 0 C5.95703125 -0.390625 5.95703125 -0.390625 8 0 C9.76171875 2.015625 9.76171875 2.015625 11 4 C9.78763672 4.18175781 9.78763672 4.18175781 8.55078125 4.3671875 C7.48214844 4.53476563 6.41351563 4.70234375 5.3125 4.875 C4.25675781 5.03742187 3.20101562 5.19984375 2.11328125 5.3671875 C-0.79794914 5.95893069 -3.28955607 6.8031806 -6 8 C-4 6 -2 4 0 2 C0 1.34 0 0.68 0 0 Z " fill="#1A262E" transform="translate(123,5)"/>
<path d="M0 0 C0.66 0.33 1.32 0.66 2 1 C2.85056945 4.55692677 3.16909807 6.49270578 2 10 C0.02 10.33 -1.96 10.66 -4 11 C-3.5247412 9.35303396 -3.04468109 7.70745272 -2.5625 6.0625 C-2.29566406 5.14597656 -2.02882813 4.22945312 -1.75390625 3.28515625 C-1 1 -1 1 0 0 Z " fill="#DC8191" transform="translate(67,124)"/>
<path d="M0 0 C1.05445312 0.00515625 2.10890625 0.0103125 3.1953125 0.015625 C4.76925781 0.00789062 4.76925781 0.00789062 6.375 0 C9.23630361 0.2580486 10.89308159 0.7881801 13.3203125 2.265625 C12.9903125 3.915625 12.6603125 5.565625 12.3203125 7.265625 C8.6903125 6.935625 5.0603125 6.605625 1.3203125 6.265625 C1.3203125 5.935625 1.3203125 5.605625 1.3203125 5.265625 C4.7853125 4.770625 4.7853125 4.770625 8.3203125 4.265625 C7.9903125 3.275625 7.6603125 2.285625 7.3203125 1.265625 C1.3803125 1.760625 1.3803125 1.760625 -4.6796875 2.265625 C-2.6796875 0.265625 -2.6796875 0.265625 0 0 Z " fill="#423832" transform="translate(123.6796875,3.734375)"/>
<path d="M0 0 C0.66 0.99 1.32 1.98 2 3 C1.34 4.32 0.68 5.64 0 7 C-0.66 7 -1.32 7 -2 7 C-2 10.96 -2 14.92 -2 19 C-2.66 19 -3.32 19 -4 19 C-4.44701413 11.43801103 -4.53574091 6.23664375 0 0 Z " fill="#2D3131" transform="translate(97,20)"/>
<path d="M0 0 C0.99 0 1.98 0 3 0 C3 0.66 3 1.32 3 2 C2.34 2 1.68 2 1 2 C1.33 3.98 1.66 5.96 2 8 C3.65 8 5.3 8 7 8 C7.66 6.68 8.32 5.36 9 4 C9.6875 5.8125 9.6875 5.8125 10 8 C8.875 9.75 8.875 9.75 7 11 C4.17884512 11.42317323 2.66049093 11.38718434 0.1875 9.9375 C-1.62623389 6.97824997 -1.25068132 4.38419775 -1 1 C-0.67 0.67 -0.34 0.34 0 0 Z " fill="#C4173F" transform="translate(198,105)"/>
<path d="M0 0 C0 3.35093432 -0.42761038 3.93349807 -2.375 6.5 C-2.81585938 7.0878125 -3.25671875 7.675625 -3.7109375 8.28125 C-4.13632813 8.8484375 -4.56171875 9.415625 -5 10 C-5.66 10.99 -6.32 11.98 -7 13 C-7.33 10.36 -7.66 7.72 -8 5 C-4.04 2.525 -4.04 2.525 0 0 Z " fill="#D78094" transform="translate(81,110)"/>
<path d="M0 0 C1.1446875 -0.02578125 2.289375 -0.0515625 3.46875 -0.078125 C6.5 0.25 6.5 0.25 9.5 3.25 C2.57 3.25 -4.36 3.25 -11.5 3.25 C-8.06346908 -0.18653092 -4.65039096 0.06284312 0 0 Z " fill="#E16626" transform="translate(129.5,1.75)"/>
<path d="M0 0 C4.29 1.65 8.58 3.3 13 5 C13 5.33 13 5.66 13 6 C8.38 6 3.76 6 -1 6 C-1 2 -1 2 0 0 Z " fill="#EB859E" transform="translate(122,208)"/>
<path d="M0 0 C3.68512208 3.08346949 7.22074785 6.17135882 10.5625 9.625 C13.48504798 12.60705687 16.43975044 14.82911612 20 17 C19.01 17.33 18.02 17.66 17 18 C14.88577451 16.55136402 13.04396325 15.11364603 11.125 13.4375 C10.60808594 13.00630859 10.09117188 12.57511719 9.55859375 12.13085938 C5.94192012 9.04712128 2.87855144 5.7867291 0 2 C0 1.34 0 0.68 0 0 Z " fill="#0F3A6E" transform="translate(42,203)"/>
<path d="M0 0 C-0.845625 0.03738281 -1.69125 0.07476562 -2.5625 0.11328125 C-10.23813591 0.50518504 -10.23813591 0.50518504 -17.5625 2.625 C-21.07668609 4.03067444 -21.65207189 4.09888231 -25 3 C-22.25435036 1.96588523 -19.5045139 0.94748843 -16.75 -0.0625 C-15.97269531 -0.35705078 -15.19539062 -0.65160156 -14.39453125 -0.95507812 C-13.26337891 -1.3659668 -13.26337891 -1.3659668 -12.109375 -1.78515625 C-11.41811523 -2.04176025 -10.72685547 -2.29836426 -10.01464844 -2.56274414 C-6.21571694 -3.38725775 -3.30996463 -1.77319533 0 0 Z " fill="#D5929F" transform="translate(153,82)"/>
<path d="M0 0 C2.0625 0.4375 2.0625 0.4375 4 1 C4 3.64 4 6.28 4 9 C3.34 7.68 2.68 6.36 2 5 C1.731875 5.969375 1.46375 6.93875 1.1875 7.9375 C0.795625 8.948125 0.40375 9.95875 0 11 C-0.99 11.33 -1.98 11.66 -3 12 C-2.69230293 10.18667846 -2.37870936 8.37435655 -2.0625 6.5625 C-1.80146484 5.04849609 -1.80146484 5.04849609 -1.53515625 3.50390625 C-1 1 -1 1 0 0 Z " fill="#CB2A51" transform="translate(187,149)"/>
<path d="M0 0 C1.75140143 0.45294865 3.50107344 0.91258748 5.25 1.375 C6.71179688 1.75785156 6.71179688 1.75785156 8.203125 2.1484375 C10.65837303 2.89598509 12.75617405 3.77123817 15 5 C11.06329512 6.31223496 8.87511856 5.24296256 5 4 C5.99 5.32 6.98 6.64 8 8 C7.67 8.66 7.34 9.32 7 10 C5.83043409 8.52312468 4.66441854 7.04343707 3.5 5.5625 C2.8503125 4.73878906 2.200625 3.91507813 1.53125 3.06640625 C0 1 0 1 0 0 Z " fill="#226894" transform="translate(156,19)"/>
<path d="M0 0 C0 0.66 0 1.32 0 2 C-0.99 2 -1.98 2 -3 2 C-3.33 2.99 -3.66 3.98 -4 5 C-7.3 5 -10.6 5 -14 5 C-11 1 -11 1 -8.125 0.25 C-5.39461275 0.03156902 -2.73682196 -0.08049476 0 0 Z " fill="#E98A98" transform="translate(168,109)"/>
<path d="M0 0 C0.33 0 0.66 0 1 0 C1.36844295 5.77227287 0.46863195 10.7230161 -2 16 C-2.66 16.33 -3.32 16.66 -4 17 C-2.07289294 5.47835991 -2.07289294 5.47835991 0 0 Z " fill="#2C4E5F" transform="translate(20,90)"/>
<path d="M0 0 C-0.99 0.66 -1.98 1.32 -3 2 C-3.6496875 2.7734375 -3.6496875 2.7734375 -4.3125 3.5625 C-6.69094132 5.58857965 -8.95441552 5.66160172 -12 6 C-12 5.01 -12 4.02 -12 3 C-4.82142857 -1.78571429 -4.82142857 -1.78571429 0 0 Z " fill="#F0A11D" transform="translate(96,9)"/>
<path d="M0 0 C0.2475 0.53625 0.495 1.0725 0.75 1.625 C2.29814886 4.56648283 4.13010957 7.25359843 6 10 C6.99 11.485 6.99 11.485 8 13 C7.01 13.33 6.02 13.66 5 14 C2.47411298 11.63707344 1.11179163 10.33537489 0 7 C-0.03954234 4.66700175 -0.04401732 2.33291811 0 0 Z " fill="#6D8AAC" transform="translate(114,25)"/>
<path d="M0 0 C0.66 0 1.32 0 2 0 C2.05395478 1.62463842 2.09277195 3.24978541 2.125 4.875 C2.14820313 5.77992187 2.17140625 6.68484375 2.1953125 7.6171875 C2 10 2 10 0 12 C0 11.34 0 10.68 0 10 C-0.99 10.33 -1.98 10.66 -3 11 C-2.88590407 9.54077307 -2.75834456 8.08259402 -2.625 6.625 C-2.55539063 5.81289063 -2.48578125 5.00078125 -2.4140625 4.1640625 C-2 2 -2 2 0 0 Z " fill="#879598" transform="translate(144,22)"/>
<path d="M0 0 C0.99 1.485 0.99 1.485 2 3 C5.2430611 7.73985853 9.10429734 10.20754824 14 13 C12.29296875 13.72265625 12.29296875 13.72265625 10 14 C5.3651154 11.12559258 1.53386279 7.75860685 -0.0625 2.5 C-0.041875 1.675 -0.02125 0.85 0 0 Z " fill="#1D2529" transform="translate(106,34)"/>
<path d="M0 0 C3.63 0 7.26 0 11 0 C11.66 1.98 12.32 3.96 13 6 C9.7 5.34 6.4 4.68 3 4 C3 3.67 3 3.34 3 3 C4.98 3 6.96 3 9 3 C9 2.34 9 1.68 9 1 C6.03 1 3.06 1 0 1 C0 0.67 0 0.34 0 0 Z " fill="#E98E9C" transform="translate(122,100)"/>
<path d="M0 0 C0.4125 0.37511719 0.825 0.75023437 1.25 1.13671875 C5.56213158 4.95796035 10.03440438 8.08513088 15 11 C12 12 12 12 9.84375 10.92578125 C9.0703125 10.39339844 8.296875 9.86101563 7.5 9.3125 C6.7265625 8.79300781 5.953125 8.27351563 5.15625 7.73828125 C2.98185131 5.98536926 1.49488916 4.3525339 0 2 C0 1.34 0 0.68 0 0 Z " fill="#92A8BB" transform="translate(106,39)"/>
<path d="M0 0 C5.62170399 0.22945731 8.39632556 1.65060682 12.6171875 5.33203125 C14.17329906 7.20903587 14.59708512 8.61866973 15 11 C14.38125 10.41992188 14.38125 10.41992188 13.75 9.828125 C9.4413236 5.94262217 5.2774632 3.40726392 0 1 C0 0.67 0 0.34 0 0 Z " fill="#162832" transform="translate(133,6)"/>
<path d="M0 0 C1.09570312 0.00902344 2.19140625 0.01804687 3.3203125 0.02734375 C4.16335937 0.03894531 5.00640625 0.05054687 5.875 0.0625 C5.875 0.3925 5.875 0.7225 5.875 1.0625 C1.42 1.5575 1.42 1.5575 -3.125 2.0625 C-1.475 2.3925 0.175 2.7225 1.875 3.0625 C1.875 3.3925 1.875 3.7225 1.875 4.0625 C-0.765 4.3925 -3.405 4.7225 -6.125 5.0625 C-6.125 4.0725 -6.125 3.0825 -6.125 2.0625 C-6.785 1.7325 -7.445 1.4025 -8.125 1.0625 C-5.36047967 -0.31976016 -3.0788637 -0.03275387 0 0 Z " fill="#EB919F" transform="translate(161.125,85.9375)"/>
<path d="M0 0 C3.71860179 1.53873177 4.35633541 2.47511388 7 6 C1.39 5.67 -4.22 5.34 -10 5 C-10 4.67 -10 4.34 -10 4 C-4.555 3.505 -4.555 3.505 1 3 C0.67 2.01 0.34 1.02 0 0 Z " fill="#1D6999" transform="translate(200,42)"/>
<path d="M0 0 C4.92980953 2.00844092 8.09403383 5.64105074 11 10 C10.01 10.495 10.01 10.495 9 11 C9 10.34 9 9.68 9 9 C8.443125 8.773125 7.88625 8.54625 7.3125 8.3125 C4.33840412 6.62449964 2.27991135 4.53323483 0 2 C0 1.34 0 0.68 0 0 Z " fill="#DCA022" transform="translate(41,205)"/>
<path d="M0 0 C0.99 0.33 1.98 0.66 3 1 C-1.29 3.97 -5.58 6.94 -10 10 C-10 9.01 -10 8.02 -10 7 C-7.91796875 5.140625 -7.91796875 5.140625 -5.1875 3.25 C-3.84751953 2.29867187 -3.84751953 2.29867187 -2.48046875 1.328125 C-1.25263672 0.67070313 -1.25263672 0.67070313 0 0 Z " fill="#161E2E" transform="translate(66,113)"/>
<path d="M0 0 C4.85714286 1.21428571 4.85714286 1.21428571 7 4 C7 4.99 7 5.98 7 7 C6.01 7.33 5.02 7.66 4 8 C2.68 5.36 1.36 2.72 0 0 Z " fill="#E67B8A" transform="translate(133,102)"/>
<path d="M0 0 C1.32 0 2.64 0 4 0 C3.95875 0.763125 3.9175 1.52625 3.875 2.3125 C3.77919176 5.22718416 3.77919176 5.22718416 6 8 C5.01 8 4.02 8 3 8 C0.19744677 5.0936485 0 4.21174952 0 0 Z " fill="#C71E46" transform="translate(136,164)"/>
<path d="M0 0 C3.29967665 2.80472516 5.08459104 6.16918209 7 10 C6.67 10.99 6.34 11.98 6 13 C0.44419134 4.738041 0.44419134 4.738041 0 0 Z " fill="#F0DFE7" transform="translate(89,160)"/>
<path d="M0 0 C3.16115776 1.36983503 3.9927092 1.9890638 6 5 C5.625 7.1875 5.625 7.1875 5 9 C3.68 7.35 2.36 5.7 1 4 C0.01 4.66 -0.98 5.32 -2 6 C-1.34 4.02 -0.68 2.04 0 0 Z " fill="#296990" transform="translate(217,60)"/>
<path d="M0 0 C2.39763185 2.39763185 2.34280586 3.33273498 2.625 6.625 C2.69976562 7.44226563 2.77453125 8.25953125 2.8515625 9.1015625 C2.92503906 10.04128906 2.92503906 10.04128906 3 11 C2.67 11 2.34 11 2 11 C1.67 9.35 1.34 7.7 1 6 C-0.32 6.33 -1.64 6.66 -3 7 C-2.25 2.25 -2.25 2.25 0 0 Z " fill="#D27D96" transform="translate(235,94)"/>
<path d="M0 0 C6.93 0.495 6.93 0.495 14 1 C14 1.33 14 1.66 14 2 C11.36 2 8.72 2 6 2 C6 2.66 6 3.32 6 4 C4.02 3.34 2.04 2.68 0 2 C0 1.34 0 0.68 0 0 Z " fill="#889491" transform="translate(120,38)"/>
<path d="M0 0 C1.32 0.33 2.64 0.66 4 1 C4 1.99 4 2.98 4 4 C6.475 4.99 6.475 4.99 9 6 C9 6.66 9 7.32 9 8 C5.08158173 6.69386058 2.67359191 5.16870152 0 2 C0 1.34 0 0.68 0 0 Z " fill="#ECB71D" transform="translate(117,31)"/>
<path d="M0 0 C1.70884005 1.62339805 3.37446717 3.29319053 5 5 C5 5.66 5 6.32 5 7 C3.125 6.75 3.125 6.75 1 6 C-0.3125 4.0625 -0.3125 4.0625 -1 2 C-0.67 1.34 -0.34 0.68 0 0 Z " fill="#E67B8B" transform="translate(115,119)"/>
<path d="M0 0 C0 1.32 0 2.64 0 4 C-2.31 4 -4.62 4 -7 4 C-7 3.01 -7 2.02 -7 1 C-4 0 -4 0 0 0 Z " fill="#DC7B8A" transform="translate(154,77)"/>
<path d="M0 0 C0.99 0.33 1.98 0.66 3 1 C2.67 3.64 2.34 6.28 2 9 C-0.0625 7.25 -0.0625 7.25 -2 5 C-1.80984746 2.78155374 -1.58477845 1.58477845 0 0 Z " fill="#D87E8F" transform="translate(205,156)"/>
<path d="M0 0 C0.66 0.33 1.32 0.66 2 1 C1.01 2.32 0.02 3.64 -1 5 C-0.01 5.66 0.98 6.32 2 7 C-0.64 7 -3.28 7 -6 7 C-4.02 4.69 -2.04 2.38 0 0 Z " fill="#236A8E" transform="translate(213,67)"/>
<path d="M0 0 C3.7952131 1.49097658 5.61042731 3.75700849 8 7 C5 7 5 7 2.3125 4.625 C0 2 0 2 0 0 Z " fill="#E1D0DB" transform="translate(99,191)"/>
<path d="M0 0 C0.66 0.33 1.32 0.66 2 1 C0.35 4.3 -1.3 7.6 -3 11 C-3.33 11 -3.66 11 -4 11 C-4.56638908 6.18569279 -2.82561627 3.79692186 0 0 Z " fill="#E9A320" transform="translate(27,72)"/>
<path d="M0 0 C-0.99 0.33 -1.98 0.66 -3 1 C-4.68538601 2.99665314 -4.68538601 2.99665314 -6 5 C-6 4.34 -6 3.68 -6 3 C-6.99 3 -7.98 3 -9 3 C-9 2.34 -9 1.68 -9 1 C-5.57367167 -0.61798838 -3.61944899 -1.34053666 0 0 Z " fill="#2F2F2D" transform="translate(159,70)"/>
<path d="M0 0 C0.66 0 1.32 0 2 0 C1.8125 2.875 1.8125 2.875 1 6 C-1.5625 7.375 -1.5625 7.375 -4 8 C-4 4.06830895 -2.60580385 2.83572772 0 0 Z " fill="#164169" transform="translate(45,50)"/>
<path d="M0 0 C0.33 0.99 0.66 1.98 1 3 C-1.25 5.0625 -1.25 5.0625 -4 7 C-6.3125 6.75 -6.3125 6.75 -8 6 C-3.25 3 -3.25 3 -1 3 C-0.67 2.01 -0.34 1.02 0 0 Z " fill="#CA2A50" transform="translate(180,166)"/>
<path d="M0 0 C3.05402088 1.52701044 3.65869481 3.95157912 5 7 C5 7.99 5 8.98 5 10 C4.34 10 3.68 10 3 10 C0 3.375 0 3.375 0 0 Z " fill="#E4A221" transform="translate(19,168)"/>
<path d="M0 0 C0.66 0 1.32 0 2 0 C1.67 3.63 1.34 7.26 1 11 C0.67 11 0.34 11 0 11 C-0.2165625 9.6078125 -0.2165625 9.6078125 -0.4375 8.1875 C-0.92100111 4.99274889 -0.92100111 4.99274889 -2 2 C-1.34 1.34 -0.68 0.68 0 0 Z " fill="#96ACC0" transform="translate(102,21)"/>
<path d="M0 0 C0 0.66 0 1.32 0 2 C-3.96 1.67 -7.92 1.34 -12 1 C-12 0.67 -12 0.34 -12 0 C-10.56359829 -0.19573608 -9.12580496 -0.38127816 -7.6875 -0.5625 C-6.88699219 -0.66691406 -6.08648437 -0.77132812 -5.26171875 -0.87890625 C-3 -1 -3 -1 0 0 Z " fill="#EA8A98" transform="translate(151,207)"/>
<path d="M0 0 C0.99 0.33 1.98 0.66 3 1 C3 2.32 3 3.64 3 5 C3.2981424 6.34164079 3.62243192 7.67851173 4 9 C1.24338912 6.51015791 -0.60746455 4.79450934 -1 1 C-0.67 0.67 -0.34 0.34 0 0 Z " fill="#26688F" transform="translate(187,193)"/>
<path d="M0 0 C1.65 0 3.3 0 5 0 C4.34 1.65 3.68 3.3 3 5 C2.34 5 1.68 5 1 5 C0.67 3.35 0.34 1.7 0 0 Z " fill="#C61842" transform="translate(181,166)"/>
<path d="M0 0 C0.66 0 1.32 0 2 0 C2 1.98 2 3.96 2 6 C1.01 6.33 0.02 6.66 -1 7 C-1.04254356 5.00045254 -1.04080783 2.99958364 -1 1 C-0.67 0.67 -0.34 0.34 0 0 Z " fill="#E67A8A" transform="translate(113,112)"/>
<path d="M0 0 C0.66 0 1.32 0 2 0 C1.67 1.32 1.34 2.64 1 4 C-2.32534757 5.10844919 -4.62182575 4.84454356 -8 4 C-8 3.67 -8 3.34 -8 3 C-5.36 2.34 -2.72 1.68 0 1 C0 0.67 0 0.34 0 0 Z " fill="#353F47" transform="translate(120,49)"/>
<path d="M0 0 C1.99097846 2.98646769 2.94124926 5.59687262 4 9 C1 8 1 8 -0.25 5.625 C-1 3 -1 3 0 0 Z " fill="#F3AB2B" transform="translate(63,42)"/>
<path d="M0 0 C0 0.99 0 1.98 0 3 C-2.97 2.67 -5.94 2.34 -9 2 C-9 1.67 -9 1.34 -9 1 C-5.846632 0.29925156 -3.27275026 0 0 0 Z " fill="#EC8B87" transform="translate(115,210)"/>
<path d="M0 0 C0.66 0.33 1.32 0.66 2 1 C0.35 3.64 -1.3 6.28 -3 9 C-3.33 7.68 -3.66 6.36 -4 5 C-2.0625 2.25 -2.0625 2.25 0 0 Z " fill="#DD5F23" transform="translate(24,129)"/>
<path d="M0 0 C1.485 0.99 1.485 0.99 3 2 C2.67 3.98 2.34 5.96 2 8 C1.01 8 0.02 8 -1 8 C-0.67 5.36 -0.34 2.72 0 0 Z " fill="#E67686" transform="translate(173,97)"/>
<path d="M0 0 C1.98 1.65 3.96 3.3 6 5 C5.01 5.33 4.02 5.66 3 6 C2.34 4.68 1.68 3.36 1 2 C0.01 2.33 -0.98 2.66 -2 3 C-2 2.34 -2 1.68 -2 1 C-1.34 0.67 -0.68 0.34 0 0 Z " fill="#1A2227" transform="translate(99,44)"/>
</svg>
